<svg xmlns="http://www.w3.org/2000/svg" version="1.1" xmlns:xlink="http://www.w3.org/1999/xlink" xmlns:svgjs="http://svgjs.com/svgjs" width="1895" height="300" transform="matrix(1,0,0,1,0,0)">
  <text font-family="DM Sans" font-size="260" text-anchor="left" x="310" charspacing="20px">
    <tspan dy="239.20000000000002" x="310">Budgetory</tspan>
  </text>
  <path transform="matrix(0.7071067811865476,0.7071067811865475,-0.7071067811865475,0.7071067811865476,148,149.33)" d="M12.753,58.705A26.470296231110545,26.470296231110545,98.92321241454498,0,1,16.5,24.5L16.5,24.5A6.838696698081117,6.838696698081117,33.61735718491918,0,1,27.841,31.043L8.261,114.705A3.577064226680322,3.577064226680322,-11.271401357089657,0,0,15,117L22.782,99.879A31,31,-121.2691682423745,0,0,20.174,69.588ZM-44.463,40.397A26.4702962310926,26.4702962310926,98.9232124145228,0,1,-12.968,26.539L-12.968,26.539A6.838696698083123,6.838696698083123,33.61735718493755,0,1,-12.963,39.632L-95.207,64.506A3.5770642266727135,3.5770642266727135,-11.271401357061185,0,0,-93.825,71.49L-75.107,69.67A31,31,238.7308317576008,0,0,-50.178,52.265ZM-57.216,-18.308A26.470296231119985,26.470296231119985,98.92321241455372,0,1,-29.468,2.039L-29.468,2.039A6.8386966980868324,6.8386966980868324,33.61735718493928,0,1,-40.804,8.59L-103.467,-50.198A3.5770642266675905,3.5770642266675905,-11.271401357051534,0,0,-108.825,-45.51L-97.889,-30.21A31,31,238.73083175755852,0,0,-70.352,-17.323ZM-12.753,-58.705A26.470296231110545,26.470296231110545,98.92321241454498,0,1,-16.5,-24.5L-16.5,-24.5A6.838696698081118,6.838696698081118,33.61735718491918,0,1,-27.841,-31.043L-8.261,-114.705A3.577064226680318,3.577064226680318,-11.271401357089644,0,0,-15,-117L-22.782,-99.879A31,31,-121.2691682423745,0,0,-20.174,-69.588ZM44.463,-40.397A26.47029623109261,26.47029623109261,-261.0767875854772,0,1,12.968,-26.539L12.968,-26.539A6.838696698083123,6.838696698083123,33.61735718493755,0,1,12.963,-39.632L95.207,-64.506A3.5770642266727135,3.5770642266727135,-11.271401357061185,0,0,93.825,-71.49L75.107,-69.67A31,31,-121.26916824239916,0,0,50.178,-52.265ZM57.216,18.308A26.47029623111997,26.47029623111997,-261.0767875854463,0,1,29.468,-2.039L29.468,-2.039A6.8386966980868324,6.8386966980868324,33.61735718493928,0,1,40.804,-8.59L103.467,50.198A3.5770642266675843,3.5770642266675843,-11.271401357051515,0,0,108.825,45.51L97.889,30.21A31,31,-121.26916824244148,0,0,70.352,17.323Z"/>
</svg>